<svg preserveAspectRatio="none" width="100%" height="100%" overflow="visible" style="display: block;" viewBox="0 0 204.261 249.282" fill="none" xmlns="http://www.w3.org/2000/svg">
<g id="Group">
<path id="Vector" d="M192.154 141.416C192.413 141.028 192.671 140.635 192.898 140.247C193.106 139.909 193.319 139.567 193.513 139.23C193.074 139.955 192.607 140.686 192.154 141.416ZM193.513 139.197C193.513 139.197 193.522 139.207 193.527 139.207C193.633 139.054 193.73 138.879 193.822 138.712C193.725 138.874 193.628 139.036 193.513 139.197ZM190.24 144.286C190.679 143.704 191.082 143.103 191.456 142.502C191.682 142.16 191.909 141.837 192.103 141.481C191.502 142.405 190.887 143.343 190.24 144.286Z" fill="var(--fill-0, #F7F6F4)"/>
<g id="Group_2">
<path id="Vector_2" d="M29.7684 155.171C29.3663 154.713 28.9595 154.265 28.5574 153.812C17.2521 140.662 9.20533 124.707 5.65568 107.736C4.19977 100.789 3.4695 93.6987 3.4695 86.604C3.4695 79.9669 4.10271 73.4869 5.31828 67.2011C5.97922 63.7069 6.8389 60.2543 7.85573 56.8849C7.90657 56.6954 7.88808 56.5336 7.82799 56.3857C7.79564 56.3071 7.73093 56.2239 7.64774 56.1777C4.65272 65.796 3.03042 76.0105 3.03042 86.604C3.03042 120.723 19.7434 150.946 45.446 169.503C39.7287 165.311 34.4643 160.486 29.7684 155.175V155.171ZM204.117 115.866C204.131 115.93 204.15 116.014 204.164 116.092C204.196 115.769 204.247 115.561 204.261 115.445C204.228 115.524 204.182 115.671 204.113 115.866H204.117Z" fill="var(--fill-0, #F7F6F4)"/>
<path id="Vector_3" d="M191.824 85.2935V85.0162C190.997 38.5425 153.236 0.665561 106.415 0H105.218C58.1254 0 19.2918 38.3114 18.6447 85.4091C18.2241 115.646 33.2547 143.419 58.8557 159.725C72.361 168.308 87.9924 172.972 104.04 173.198H105.269C121.885 173.198 137.983 168.503 151.826 159.61C156.753 156.467 161.38 152.793 165.627 148.66C180.038 134.637 188.945 116.464 191.242 96.7606C191.261 96.7606 191.261 96.7421 191.242 96.7282C191.584 93.7794 191.778 90.7844 191.824 87.7894C191.838 86.962 191.838 86.1208 191.824 85.2935ZM179.904 87.6276C179.595 110.654 168.876 131.915 150.495 145.957C137.392 155.982 121.751 161.278 105.251 161.278H104.197C88.168 161.052 72.9433 155.82 60.1822 146.118C41.2969 131.804 30.2227 109.166 30.5462 85.5708C31.1101 44.9577 64.6054 11.92 105.218 11.92H106.254C147.435 12.4839 180.468 46.446 179.904 87.6276Z" fill="var(--fill-0, #F7F6F4)"/>
<path id="Vector_4" d="M0.744134 247.514C0.485305 247.468 0.240341 247.399 0 247.353C0.147902 247.385 0.295803 247.417 0.439083 247.431H0.448329C0.54539 247.459 0.656314 247.477 0.748753 247.51L0.744134 247.514Z" fill="var(--fill-0, #F7F6F4)"/>
<path id="Vector_5" d="M1.85185 247.75C1.85185 247.75 1.89235 247.758 1.90855 247.762H1.90045C1.90045 247.762 1.86805 247.754 1.8478 247.75H1.85185Z" fill="var(--fill-0, #F7F6F4)"/>
<g id="Group_3">
<path id="Vector_6" d="M6.49293 248.666C6.93201 248.754 7.38034 248.837 7.82867 248.925C7.21395 248.814 6.59923 248.698 5.98451 248.573C6.15552 248.606 6.32654 248.638 6.49755 248.67L6.49293 248.666Z" fill="var(--fill-0, #F7F6F4)"/>
<path id="Vector_7" d="M9.13346 249.153C9.16581 249.162 9.19817 249.167 9.23052 249.176C9.20279 249.176 9.16582 249.167 9.13808 249.162C8.9301 249.125 8.72673 249.084 8.51874 249.047C8.7221 249.084 8.92547 249.121 9.12884 249.153H9.13346Z" fill="var(--fill-0, #F7F6F4)"/>
<path id="Vector_8" d="M9.82059 249.282C9.64958 249.259 9.47857 249.226 9.30756 249.189C9.34453 249.199 9.3815 249.203 9.41848 249.208C9.55251 249.236 9.68656 249.259 9.82059 249.282Z" fill="var(--fill-0, #F7F6F4)"/>
</g>
<path id="Vector_9" d="M9.13183 249.153C8.92846 249.121 8.7251 249.084 8.52173 249.047C8.72972 249.084 8.93308 249.125 9.14107 249.162C9.1688 249.162 9.20578 249.171 9.23351 249.176C9.20116 249.167 9.16881 249.162 9.13645 249.153H9.13183Z" fill="var(--fill-0, #F7F6F4)"/>
<path id="Vector_10" d="M160.202 77.6641L124.936 76.7304L141.76 45.7218C142.171 44.9591 141.242 44.1826 140.568 44.7188L112.951 66.6731L105.908 32.1055C105.737 31.255 104.521 31.255 104.35 32.1055L97.3062 66.6731L69.6854 44.7188C69.0106 44.1826 68.0816 44.9591 68.4929 45.7218L85.3168 76.7304L50.0514 77.6641C49.1825 77.6918 48.9745 78.8796 49.7787 79.1986L82.5991 92.14L56.1847 115.527C55.5376 116.1 56.1385 117.149 56.9658 116.877L90.4241 105.692L85.2198 140.583C85.0904 141.438 86.232 141.854 86.6803 141.114L105.122 111.039L123.563 141.114C124.016 141.854 125.153 141.438 125.024 140.583L119.824 105.692L153.283 116.877C154.101 117.154 154.711 116.1 154.059 115.527L127.645 92.14L160.465 79.1986C161.269 78.8843 161.061 77.6918 160.197 77.6641H160.202ZM106.194 97.8528C100.005 97.8528 94.9906 92.8379 94.9906 86.6491C94.9906 80.4603 100.005 75.4455 106.194 75.4455C112.383 75.4455 117.398 80.4603 117.398 86.6491C117.398 92.8379 112.383 97.8528 106.194 97.8528Z" fill="var(--fill-0, #F7F6F4)"/>
</g>
</g>
</svg>
