<svg preserveAspectRatio="none" width="100%" height="100%" overflow="visible" style="display: block;" viewBox="0 0 305.454 197.196" fill="none" xmlns="http://www.w3.org/2000/svg">
<path id="Vector" d="M305.267 71.9401C304.824 71.6859 303.266 74.3481 302.138 76.4141C302.11 76.4696 302.078 76.525 302.05 76.5805C301.986 76.7099 301.916 76.8393 301.847 76.9688C301.57 77.5003 301.297 78.0364 301.02 78.5726C300.992 78.6188 300.96 78.6696 300.932 78.7159C300.923 78.7251 300.923 78.7343 300.923 78.7343C300.631 79.252 300.34 79.7697 300.049 80.3058C299.679 80.9852 299.286 81.6508 298.884 82.3163C298.82 82.4596 298.736 82.5937 298.644 82.7185C298.552 82.8895 298.454 83.0605 298.348 83.213C298.348 83.213 298.339 83.2269 298.334 83.2361C298.14 83.5735 297.932 83.9155 297.72 84.2529C297.493 84.6412 297.234 85.0341 296.975 85.4223C296.962 85.4362 296.943 85.4685 296.929 85.487C296.735 85.8429 296.509 86.1664 296.282 86.5085C295.908 87.1093 295.501 87.7056 295.067 88.2925C295.085 88.3203 295.067 88.3388 295.034 88.3572C294.632 88.9766 294.193 89.5867 293.74 90.1875C293.287 90.8531 292.783 91.514 292.298 92.1657C291.956 92.6325 291.6 93.0901 291.23 93.5569C290.888 93.996 290.532 94.4305 290.163 94.8696C287.329 98.3823 284.251 101.701 280.965 104.798C273.015 112.294 263.882 118.529 253.843 123.179C253.746 123.179 253.631 123.161 253.534 123.147C253.372 123.147 253.21 123.133 253.048 123.1C252.822 123.082 252.591 123.054 252.369 123.017C248.288 122.513 244.013 124.344 241.549 127.635C241.517 127.662 241.484 127.713 241.452 127.746C241.369 127.847 241.29 127.954 241.235 128.055C241.226 128.055 241.216 128.064 241.207 128.074C238.794 128.818 236.363 129.483 233.9 130.047C233.285 130.195 232.67 130.338 232.042 130.468C225.192 131.91 218.097 132.668 210.827 132.668C207.037 132.668 203.316 132.46 199.642 132.053C198.912 131.988 198.167 131.905 197.437 131.794C195.981 131.6 194.521 131.392 193.083 131.129C192.968 131.115 192.857 131.101 192.741 131.064C187.528 130.14 182.476 128.813 177.572 127.126C177.6 127.191 177.637 127.256 177.688 127.32C177.752 127.436 177.799 127.547 177.863 127.658C180.942 133.357 184.648 139.481 188.309 144.791C188.651 145.281 189.007 145.78 189.506 146.09C190.042 146.4 190.671 146.46 191.304 146.511C205.087 147.578 219.077 145.993 232.291 141.866C229.472 144.519 225.751 145.928 222.058 147.001C212.2 149.848 201.847 150.675 191.567 150.74C194.322 154.4 197.169 157.978 200.15 161.444C200.46 161.8 200.77 162.156 201.186 162.369C201.703 162.609 202.304 162.581 202.868 162.53C216.281 161.514 229.282 155.713 239.03 146.432C234.122 153.624 227.24 159.406 219.502 163.404C211.761 167.406 203.178 169.657 194.516 170.434C189.543 170.873 184.348 170.79 179.828 168.687C173.482 165.752 169.433 159.147 167.921 152.33C166.433 145.512 167.131 138.418 168.088 131.489C169.156 123.655 162.694 121.612 156.944 118.049C154.888 116.768 152.863 115.423 150.903 113.986C150.695 113.857 150.483 113.695 150.275 113.515C124.572 94.9574 107.859 64.7391 107.859 30.6152C107.859 20.0217 109.482 9.80716 112.477 0.188875C112.167 -0.0884418 111.635 -0.0884436 111.39 0.378374C103.908 14.5354 99.5675 30.5828 99.341 47.5731C99.3087 50.2261 99.3549 52.8514 99.5167 55.4582C100.279 68.3673 103.385 80.7865 108.553 92.2351C106.158 89.0783 103.986 85.7736 102.013 82.3579C98.6293 76.5759 95.8422 70.4564 93.6884 64.092C90.8829 55.8834 89.1034 47.2819 88.4749 38.4263C88.4101 37.6313 87.2916 37.5389 87.0836 38.2969C84.8328 46.8798 83.5848 55.8695 83.4554 65.095C83.3075 75.2032 83.4092 86.8597 88.8954 95.6414C101.772 116.241 121.041 132.252 143.374 141.681C142.094 141.422 140.735 140.983 139.441 140.576C120.168 134.632 105.336 124.64 92.1539 110.312C90.3883 108.403 88.6551 106.424 86.9589 104.349C89.4501 112.641 93.1107 121.03 98.3751 129.141C102.618 135.182 108.543 140.641 115.495 145.48C125.501 152.431 137.648 158.084 150.021 162.211C141.308 160.677 134.685 158.939 127.493 156.138C125.099 155.195 122.65 154.16 120.043 152.949C129.957 160.945 142.339 168.137 157.712 174.048C157.065 173.789 155.687 174.326 155.008 174.307C152.614 174.242 150.229 174.067 147.835 173.836C144.174 173.494 140.518 173.304 136.89 172.671C132.208 171.876 127.577 170.854 122.978 169.625C117.552 168.183 112.209 166.454 106.967 164.43C101.037 162.147 95.2414 159.503 89.6396 156.508C83.4693 153.203 77.507 149.159 71.859 144.995C65.6702 140.447 59.9898 135.118 54.5914 129.645C48.6476 123.623 43.2445 117.078 38.3822 110.15C33.4552 103.106 27.3542 91.4077 24.3315 83.4626C24.1512 82.9865 23.4487 83.0975 23.4256 83.6105C23.2176 87.6085 22.9264 90.9039 22.8201 93.3258C22.6907 96.4041 22.6583 99.4777 22.7046 102.574C22.7046 102.038 21.6369 100.772 21.3781 100.305C20.8281 99.3621 20.2919 98.4285 19.7558 97.4717C18.7066 95.5767 17.6851 93.6494 16.7145 91.7035C14.7225 87.7333 12.906 83.6891 11.2699 79.5755C11.1589 79.2982 11.0619 79.0255 10.9648 78.7482C8.3904 72.1712 6.2412 65.3723 4.56343 58.4209C4.4294 57.8662 3.63904 57.8662 3.50038 58.4209V58.444C2.50667 62.1646 0.727217 71.6627 0.0801445 75.1662C-0.0770016 76.0305 -0.00305049 76.9133 0.301998 77.7406C1.7348 81.6554 6.20422 93.6956 8.82949 99.1726C8.73243 101.211 8.70007 103.254 8.70007 105.311C8.70007 108.661 8.81562 111.985 9.02361 115.289C35.9048 158.736 79.5869 183.158 136.941 191.45C114.524 191.917 91.5253 187.017 76.3607 181.61C76.2637 181.577 76.1712 181.545 76.0788 181.508C76.0511 181.499 76.028 181.49 76.0002 181.48C76.0002 181.48 75.991 181.48 75.9864 181.48C75.3855 181.295 74.2393 181.014 74.0174 181.425C73.8094 181.836 76.1296 182.816 76.1296 182.816C78.3528 183.699 79.6654 184.119 82.605 185.136C83.0626 185.284 83.497 185.446 83.95 185.594C84.0147 185.608 84.0794 185.622 84.1302 185.659C91.0724 187.96 98.1347 189.883 105.289 191.459H105.299C105.396 191.487 105.507 191.505 105.599 191.542C105.715 191.556 105.812 191.589 105.927 191.607C105.992 191.639 106.057 191.658 106.135 191.658C106.168 191.672 106.214 191.672 106.251 191.686C106.348 191.704 106.459 191.736 106.574 191.75C106.616 191.76 106.658 191.773 106.704 191.783C106.727 191.783 106.75 191.792 106.769 191.797C106.769 191.797 106.782 191.797 106.792 191.797H106.801H106.81C107.152 191.861 107.49 191.94 107.845 192C108.072 192.065 108.317 192.115 108.557 192.148C108.59 192.148 108.636 192.166 108.673 192.166C109.556 192.342 110.438 192.518 111.33 192.689C111.964 192.809 112.597 192.929 113.225 193.044C113.272 193.054 113.322 193.063 113.369 193.072C113.572 193.109 113.775 193.146 113.979 193.179C114.011 193.188 114.043 193.192 114.076 193.202C114.099 193.211 114.122 193.211 114.145 193.215C114.182 193.225 114.219 193.229 114.256 193.234C117.279 193.765 120.329 194.232 123.361 194.662C123.394 194.662 123.426 194.681 123.477 194.681C132.998 195.989 142.602 196.751 152.193 197.056C159.38 197.283 166.59 197.25 173.777 196.83C182.504 196.34 191.202 195.291 199.767 193.525C208.433 191.741 216.138 189.361 222.456 186.449C225.224 185.201 228.446 183.694 230.78 180.843C230.969 180.602 230.794 180.228 230.484 180.26C222.276 181.49 215.666 181.943 210.841 182.058C208.331 182.123 206.311 182.09 204.786 182.026C204.171 182.012 203.654 181.993 203.201 181.961C202.471 181.929 201.953 181.882 201.662 181.845C201.662 181.845 201.662 181.859 201.648 181.845C201.468 181.845 201.389 181.827 201.389 181.827C202.101 181.605 202.799 181.374 203.497 181.148H203.381C205.017 180.5 207.217 179.595 208.932 178.915C209.403 178.721 209.824 178.559 210.198 178.416C210.263 178.416 210.328 178.384 210.393 178.333C213.212 177.279 215.943 176.082 218.587 174.769C222.895 172.662 226.958 170.286 230.715 167.693C231.64 167.06 232.546 166.408 233.433 165.747C235.023 164.55 236.562 163.316 238.036 162.054C239.978 160.386 241.808 158.671 243.523 156.892C244.073 156.309 244.627 155.722 245.159 155.126C246.31 153.864 247.428 152.57 248.482 151.225C249.485 149.945 250.506 147.662 251.948 146.885C252.434 146.626 252.998 146.548 253.538 146.432C255.53 146.03 257.388 145.041 258.895 143.677C259.496 143.141 260.046 142.54 260.518 141.912C261.456 140.682 262.154 139.268 262.523 137.78C262.653 137.248 262.764 136.675 263.073 136.241C263.314 135.903 263.637 135.658 263.961 135.418C265.81 134.059 267.608 132.663 269.355 131.24C272.317 128.809 275.118 126.22 277.725 123.285C277.915 123.077 278.095 122.865 278.27 122.652C285.832 114.199 292.488 104.89 297.609 94.7494C297.623 94.7171 297.655 94.6708 297.673 94.62C298.417 93.1132 299.134 91.6065 299.813 90.0858C299.91 89.8594 300.021 89.6144 300.123 89.3926C301.491 86.2958 302.753 83.1668 303.885 79.9915C303.894 79.9776 303.895 79.9638 303.899 79.9499C304.2 78.9701 305.997 72.3653 305.29 71.9585L305.267 71.9401ZM255.905 134.096C255.789 136.652 252.845 139.31 249.087 138.048C249.009 138.034 248.926 138.002 248.843 137.969C248.699 137.905 248.551 137.854 248.408 137.775C247.969 137.586 247.595 137.322 247.303 137.05C246.864 136.68 246.578 136.241 246.416 135.755C245.408 133.001 248.519 129.308 252.813 130.523C253.33 130.671 253.783 130.865 254.158 131.092C255.114 131.637 255.646 132.4 255.826 133.213C255.84 133.292 255.854 133.375 255.872 133.472C255.905 133.685 255.919 133.893 255.905 134.105V134.096Z" fill="var(--fill-0, #9C0512)"/>
</svg>
