<svg preserveAspectRatio="none" width="100%" height="100%" overflow="visible" style="display: block;" viewBox="0 0 386.917 166.972" fill="none" xmlns="http://www.w3.org/2000/svg">
<g id="Group">
<path id="Vector" d="M81.444 91.1613C79.0452 91.1613 77.0301 91.984 75.3662 93.6433C73.7023 95.3026 72.8564 97.327 72.8564 99.6981C72.8564 102.069 73.6976 104.094 75.3662 105.753C77.0347 107.412 79.0637 108.235 81.444 108.235C83.8243 108.235 85.858 107.412 87.5219 105.753C89.1858 104.094 90.0316 102.069 90.0316 99.6981C90.0316 97.327 89.1904 95.3026 87.5219 93.6433C85.858 91.984 83.8428 91.1613 81.444 91.1613Z" fill="var(--fill-0, black)"/>
<path id="Vector_2" d="M141.791 118.395L141.773 118.34C138.015 114.143 132.543 112.068 125.365 112.068C121.741 112.068 118.372 112.65 115.256 113.801C112.215 114.952 109.562 116.68 107.33 119C105.093 121.316 103.299 124.196 101.996 127.662C100.771 131.128 100.147 135.214 100.147 139.901C100.147 144.588 100.841 148.784 102.218 152.251C103.665 155.648 105.587 158.453 107.986 160.695C110.454 162.941 113.278 164.527 116.463 165.46C119.647 166.482 123.017 166.972 126.571 166.972C130.689 166.972 134.026 166.533 136.568 165.678C139.115 164.896 141.296 163.801 143.09 162.433L145.47 156.378L144.171 155.412C140.252 158.657 135.801 160.284 130.8 160.284C128.346 160.284 126.169 159.771 124.278 158.768C122.467 157.672 120.946 156.23 119.717 154.446C118.547 152.57 117.683 150.36 117.119 147.841C116.551 145.323 116.259 142.609 116.259 139.725H147.444C147.518 139.503 147.555 139.069 147.555 138.427V136.148C147.555 128.485 145.632 122.573 141.786 118.4L141.791 118.395ZM116.246 134.789C116.319 132.695 116.504 130.597 116.791 128.517C117.161 126.349 117.669 124.45 118.312 122.772C118.968 121.039 119.828 119.634 120.914 118.557C122.009 117.466 123.326 116.934 124.939 116.934C127.759 116.934 129.756 118.557 130.906 121.806C132.136 125.051 132.829 129.377 132.977 134.789H116.241H116.246Z" fill="var(--fill-0, black)"/>
<path id="Vector_3" d="M88.8243 125.137C88.9722 121.236 89.2264 117.349 89.5916 113.444C87.5579 113.809 84.8494 113.989 81.4431 113.989C79.7792 113.989 78.2585 113.952 76.8812 113.878C75.5085 113.735 74.2975 113.587 73.2899 113.444C73.6551 117.345 73.8769 121.232 73.9324 125.137C74.0757 128.969 74.1543 133.073 74.1543 137.487V141.827C74.1543 146.222 74.0803 150.382 73.9324 154.265C73.8585 158.17 73.6366 161.909 73.2899 165.519C74.2975 165.376 75.5085 165.302 76.8812 165.302H86.0003C87.447 165.302 88.6394 165.376 89.5916 165.519C89.2264 161.909 88.9676 158.152 88.8243 154.265C88.7504 150.364 88.7134 146.222 88.7134 141.827V137.487C88.7134 133.092 88.7504 128.969 88.8243 125.137Z" fill="var(--fill-0, black)"/>
<path id="Vector_4" d="M59.3882 91.1613C56.5504 99.6796 53.3658 108.581 49.8301 117.904C46.2758 127.134 42.6152 136.346 38.8622 145.52C37.1983 140.977 35.4558 136.346 33.644 131.659C31.9062 126.972 30.2006 122.304 28.5367 117.687C26.8728 113 25.2413 108.42 23.6467 103.932C22.1261 99.4624 20.7534 95.1963 19.5286 91.1613C17.934 91.3092 16.3441 91.4525 14.7495 91.6004C13.1549 91.6744 11.565 91.7113 9.9704 91.7113C8.37583 91.7113 6.74889 91.6744 5.08037 91.6004C3.4858 91.4525 1.85427 91.3092 0.190374 91.1613C1.34586 93.8975 2.71857 97.2161 4.31314 101.122C5.90309 105.027 7.60858 109.238 9.42039 113.781C11.2322 118.251 13.1179 122.9 15.0776 127.753C17.0373 132.588 18.8861 137.312 20.624 141.924C22.4358 146.537 24.1043 150.919 25.6249 155.023C27.2195 159.127 28.5552 162.631 29.6368 165.529C31.0834 165.385 32.678 165.311 34.4159 165.311C36.1537 165.311 37.7483 165.385 39.195 165.529C41.3026 159.474 43.6829 152.98 46.3544 146.047C49.0443 139.114 51.7574 132.292 54.5029 125.6C57.2483 118.888 59.9059 112.538 62.4295 106.557C64.9762 100.558 67.1346 95.4505 68.9464 91.1798C67.1346 91.545 65.5401 91.7252 64.1673 91.7252C62.7946 91.7252 61.2 91.545 59.3882 91.1798V91.1613Z" fill="var(--fill-0, black)"/>
<path id="Vector_5" d="M297.132 161.527V161.509C296.346 161.361 295.685 161.051 295.172 160.538C294.659 160.025 294.257 159.299 293.979 158.37C293.758 157.367 293.651 155.981 293.651 154.266C293.651 150.365 293.688 146.478 293.758 142.577C293.905 138.602 293.979 134.313 293.979 129.7C293.979 126.525 293.466 123.826 292.463 121.584C291.511 119.361 290.139 117.535 288.345 116.167C286.603 114.725 284.495 113.685 282.041 113.034C279.647 112.377 277.008 112.068 274.114 112.068C270.657 112.068 267.121 112.705 263.586 114.018C260.11 115.312 256.847 117.189 253.81 119.652L255.22 126.146H255.987C256.482 125.346 257.217 124.63 258.15 123.978C259.176 123.248 260.258 122.606 261.409 122.023C262.638 121.441 263.9 121.002 265.199 120.729C266.497 120.364 267.764 120.184 268.993 120.184C272.252 120.184 274.798 121.113 276.61 122.989C278.496 124.796 279.43 126.987 279.43 129.594C279.43 130.541 279.282 131.327 278.99 131.984C278.769 132.64 278.219 133.245 277.359 133.828C276.481 134.341 275.145 134.882 273.333 135.45C271.591 135.963 269.215 136.564 266.155 137.294C263.701 137.877 261.483 138.588 259.546 139.462C257.586 140.248 255.881 141.269 254.439 142.489C253.066 143.733 251.984 145.207 251.18 146.922C250.45 148.655 250.08 150.716 250.08 153.083C250.08 154.816 250.376 156.554 250.958 158.282C251.527 159.942 252.442 161.458 253.671 162.826C254.97 164.12 256.602 165.141 258.562 165.853C260.521 166.56 262.864 166.93 265.628 166.93C268.961 166.93 271.711 166.255 273.888 164.869C276.139 163.501 278.08 161.656 279.748 159.341C280.627 161.804 281.893 163.662 283.557 164.975C285.225 166.274 287.407 166.93 290.079 166.93C291.742 166.93 293.3 166.708 294.747 166.292C296.193 165.853 297.973 165.197 300.08 164.342V161.749C298.98 161.749 298.01 161.675 297.145 161.532L297.132 161.527ZM279.536 142.027V149.071C279.536 152.611 278.787 155.269 277.248 157.081C275.806 158.883 273.879 159.78 271.48 159.78C269.594 159.78 268.078 159.087 266.923 157.719C265.841 156.277 265.296 154.215 265.296 151.558C265.296 148.9 265.716 146.723 266.594 145.286C267.533 143.839 268.702 142.73 270.075 141.925C271.521 141.07 273.079 140.372 274.743 139.864C276.485 139.282 278.112 138.57 279.633 137.696C279.633 138.916 279.596 140.377 279.522 142.018L279.541 142.036L279.536 142.027Z" fill="var(--fill-0, black)"/>
<path id="Vector_6" d="M241.213 150.153C241.213 147.325 241.287 144.519 241.435 141.709C241.583 138.899 241.657 135.654 241.657 131.966C241.657 124.982 240.173 119.907 237.206 116.811C234.312 113.635 230.139 112.05 224.717 112.05C221.237 112.05 218.126 112.873 215.376 114.532C212.686 116.191 210.343 118.544 208.309 121.571H208.088L208.527 113.455C207.08 113.598 205.707 113.746 204.409 113.894C203.184 113.968 201.899 114 200.6 114C199.301 114 197.998 113.964 196.681 113.894C195.456 113.746 194.171 113.603 192.872 113.455C193.237 117.356 193.459 121.243 193.533 125.149C193.676 128.98 193.755 133.085 193.755 137.499V141.839C193.755 146.234 193.681 150.394 193.533 154.281C193.459 158.182 193.237 161.921 192.872 165.535C193.898 165.392 195.086 165.318 196.463 165.318H205.583C207.029 165.318 208.222 165.392 209.174 165.535C208.809 161.926 208.55 158.168 208.407 154.281C208.333 150.375 208.296 146.239 208.296 141.839V137.499C208.296 132.521 209.063 128.615 210.583 125.805C212.104 122.995 214.503 121.576 217.761 121.576C220.581 121.576 222.758 122.653 224.278 124.82C225.873 126.919 226.677 130.237 226.677 134.781C226.677 141.349 226.603 147.186 226.455 152.312C226.307 157.364 225.979 161.778 225.466 165.517C226.4 165.374 227.611 165.3 229.057 165.3H238.176C239.623 165.3 240.834 165.374 241.768 165.517C241.624 162.984 241.477 160.391 241.329 157.729C241.255 154.993 241.218 152.46 241.218 150.158L241.213 150.153Z" fill="var(--fill-0, black)"/>
<path id="Vector_7" d="M181.02 161.091C179.791 161.091 178.769 160.87 177.979 160.435C177.193 159.996 176.569 159.173 176.13 157.953C175.691 156.733 175.363 154.963 175.159 152.647C175.011 150.345 174.938 147.304 174.938 143.565V138.259C175.011 136.161 175.048 134.007 175.048 131.765C175.122 129.524 175.192 127.333 175.27 125.16C175.414 123.007 175.561 121.075 175.709 119.415L185.268 119.633C185.046 118.759 184.939 117.862 184.939 116.933C184.939 116.055 185.05 115.094 185.268 114.017L175.709 114.239V109.261C175.783 107.454 175.853 105.72 175.931 104.061C176.079 102.328 176.19 100.706 176.259 99.1897C176.407 97.6043 176.551 96.2362 176.698 95.0854L175.617 94.3366C173.144 95.5568 170.69 96.7631 168.217 97.914C165.744 98.9909 163.258 100.049 160.711 101.052C160.859 103.789 160.97 106.141 161.039 108.092C161.113 110.042 161.15 112.14 161.15 114.368L153.552 114.04C153.774 115.117 153.88 116.101 153.88 116.956C153.88 117.885 153.769 118.796 153.552 119.656L161.15 119.549C161.15 121.865 161.113 124.384 161.039 127.12C160.965 129.782 160.854 132.537 160.711 135.347C160.637 138.083 160.568 140.801 160.489 143.463C160.415 146.052 160.378 148.404 160.378 150.503C160.378 161.484 164.973 166.957 174.184 166.957C176.292 166.957 178.432 166.698 180.595 166.208C182.776 165.718 184.588 165.131 186.035 164.475V160.042C185.374 160.407 184.736 160.68 184.075 160.92C183.433 161.064 182.411 161.142 181.034 161.142L181.015 161.105L181.02 161.091Z" fill="var(--fill-0, black)"/>
<path id="Vector_8" d="M386.468 157.733C386.395 154.997 386.358 152.464 386.358 150.162C386.358 147.333 386.431 144.523 386.579 141.718C386.727 138.908 386.801 135.663 386.801 131.979C386.801 124.995 385.318 119.921 382.35 116.819C379.457 113.644 375.283 112.059 369.862 112.059C366.603 112.059 363.525 112.951 360.613 114.758C357.72 116.491 355.173 119.01 353.015 122.329C351.716 119.01 349.867 116.491 347.464 114.758C345.158 112.951 342.357 112.059 339.098 112.059C335.618 112.059 332.503 112.877 329.757 114.541C327.067 116.2 324.724 118.552 322.69 121.58H322.468L322.907 113.464C321.461 113.612 320.07 113.755 318.789 113.903C317.56 113.977 316.28 114.014 314.981 114.014C313.682 114.014 312.383 113.977 311.061 113.903C309.837 113.759 308.57 113.612 307.253 113.464C307.618 117.369 307.84 121.252 307.914 125.157C308.062 128.989 308.136 133.093 308.136 137.507V141.847C308.136 146.243 308.062 150.402 307.914 154.285C307.84 158.19 307.623 161.929 307.253 165.539C308.279 165.396 309.471 165.317 310.844 165.317H319.963C321.41 165.317 322.616 165.391 323.555 165.539C323.189 161.929 322.931 158.172 322.806 154.285C322.732 150.384 322.695 146.243 322.695 141.847V137.507C322.695 132.529 323.462 128.624 324.983 125.814C326.503 123.003 328.902 121.584 332.142 121.584C335.183 121.584 337.249 122.768 338.349 125.157C339.431 127.547 339.981 130.902 339.981 135.224V141.829C339.981 146.224 339.907 150.384 339.759 154.271C339.685 158.172 339.468 161.911 339.098 165.525C340.106 165.382 341.312 165.308 342.689 165.308H351.809C353.255 165.308 354.462 165.382 355.4 165.525C355.035 161.916 354.776 158.158 354.633 154.271C354.559 150.365 354.522 146.229 354.522 141.829V134.022C354.522 132.728 354.632 131.36 354.85 129.918C355.072 128.476 355.492 127.145 356.149 125.924C356.791 124.63 357.669 123.572 358.751 122.786C359.906 121.982 361.353 121.598 363.091 121.598C365.836 121.598 367.981 122.675 369.501 124.843C371.022 126.941 371.789 130.26 371.789 134.803C371.789 141.371 371.715 147.209 371.567 152.334C371.419 157.386 371.091 161.8 370.597 165.539C371.53 165.396 372.741 165.317 374.188 165.317H383.326C384.772 165.317 385.965 165.391 386.917 165.539C386.774 163.002 386.626 160.413 386.478 157.751V157.733H386.468Z" fill="var(--fill-0, black)"/>
<path id="Vector_9" d="M9.2393 22.6199C11.0511 27.0893 12.9369 31.739 14.8781 36.592C16.8378 41.4266 18.6865 46.1502 20.429 50.7629C22.2408 55.3756 23.9093 59.7573 25.4253 63.8615C27.0199 67.9658 28.3557 71.4693 29.4557 74.3672C30.9024 74.2193 32.4969 74.15 34.2348 74.15C35.9726 74.15 37.5672 74.224 39.0139 74.3672C41.1215 68.3125 43.5018 61.8186 46.1918 54.8857C48.8632 47.9528 51.5948 41.1308 54.3402 34.4197C57.0857 27.7086 59.7433 21.3581 62.2669 15.3773C64.8136 9.39645 66.972 4.27071 68.7838 2.15626e-05C66.972 0.365156 65.3775 0.545416 64.0047 0.545416C62.632 0.545416 61.0374 0.365156 59.2256 2.15626e-05C56.4062 8.51828 53.2217 17.4202 49.6674 26.7426C46.1132 35.9727 42.4526 45.1842 38.6811 54.3588C37.0172 49.8154 35.2747 45.1842 33.4629 40.4976C31.7204 35.8109 30.0196 31.1381 28.351 26.5254C26.6871 21.8387 25.0556 17.2584 23.461 12.7705C21.9404 8.30105 20.5677 4.03499 19.3382 2.15626e-05C17.7437 0.147924 16.1537 0.291203 14.5592 0.439106C12.9646 0.513057 11.3746 0.550035 9.78006 0.550035C8.18549 0.550035 6.55856 0.513057 4.89003 0.439106C3.29546 0.291203 1.66856 0.147924 3.48161e-05 2.15626e-05C1.15552 2.73622 2.54672 6.05478 4.1228 9.96033C5.71275 13.8659 7.41824 18.0765 9.23005 22.6199H9.2393Z" fill="var(--fill-0, black)"/>
<path id="Vector_10" d="M153.525 17.1061C155.924 17.1061 157.939 16.2834 159.603 14.6241C161.267 12.9648 162.113 10.9404 162.113 8.56934C162.113 6.19828 161.271 4.17386 159.603 2.51458C157.934 0.855298 155.919 0.0325928 153.525 0.0325928C151.131 0.0325928 149.111 0.855298 147.447 2.51458C145.783 4.17386 144.938 6.19828 144.938 8.56934C144.938 10.9404 145.779 12.9648 147.447 14.6241C149.111 16.2834 151.145 17.1061 153.525 17.1061Z" fill="var(--fill-0, black)"/>
<path id="Vector_11" d="M116.728 69.9341C114.842 69.9341 113.173 69.6799 111.727 69.1854C110.354 68.6723 109.143 68.0345 108.135 67.2349C107.109 66.3798 106.25 65.4277 105.533 64.4248C104.872 63.3479 104.345 62.2155 103.906 61.0692H101.198C100.976 64.5357 100.431 68.0021 99.5663 71.464C101.087 72.4854 103.158 73.4514 105.774 74.3804C108.376 75.3095 111.306 75.7855 114.583 75.7855C117.328 75.7855 119.949 75.4574 122.403 74.8195C124.95 74.1817 127.182 73.1233 129.142 71.6812C131.102 70.1652 132.659 68.2887 133.81 66.0609C134.966 63.7453 135.553 61.0091 135.553 57.8339C135.553 54.6586 134.892 52.0703 133.593 50.0459C132.368 48.0214 130.811 46.3991 128.925 45.1743C127.039 43.8802 124.969 42.8218 122.736 42.036C120.485 41.2503 118.433 40.4507 116.547 39.6465C114.662 38.8607 113.067 37.9502 111.768 36.9473C110.543 35.8703 109.919 34.4653 109.919 32.732C109.919 30.8555 110.654 29.3395 112.101 28.1887C113.622 27.0378 115.47 26.4554 117.634 26.4554C119.371 26.4554 120.855 26.7836 122.084 27.4214C123.309 28.0038 124.372 28.7525 125.232 29.7C126.11 30.629 126.79 31.6505 127.303 32.7274C127.797 33.7304 128.162 34.6779 128.384 35.5376H131.425C131.647 33.9522 131.975 32.3253 132.396 30.666C132.817 29.0067 133.367 27.4538 134.028 26.0163C131.573 24.3571 129.138 23.0999 126.739 22.2217C124.414 21.3482 121.738 20.9276 118.701 20.9276C116.45 20.9276 114.176 21.2927 111.851 22.0045C109.601 22.6423 107.585 23.7007 105.774 25.1428C103.962 26.5109 102.478 28.3181 101.323 30.5597C100.241 32.732 99.6911 35.3203 99.6911 38.3477C99.6911 41.3751 100.315 44.1113 101.54 46.1357C102.765 48.1601 104.285 49.8564 106.097 51.2245C107.983 52.5186 110.017 53.5955 112.175 54.4691C114.357 55.3426 116.349 56.2023 118.147 57.0574C120.032 57.8431 121.59 58.7536 122.815 59.7566C124.044 60.7596 124.663 62.0907 124.663 63.7684C124.663 65.2844 123.984 66.6849 122.593 67.9837C121.22 69.2778 119.26 69.9341 116.732 69.9341V69.9156L116.728 69.9341Z" fill="var(--fill-0, black)"/>
<path id="Vector_12" d="M73.9324 63.1133C73.8585 67.0189 73.6366 70.758 73.2899 74.3678C74.2975 74.2199 75.5085 74.1506 76.8812 74.1506H86.0003C87.447 74.1506 88.6394 74.2245 89.5916 74.3678C89.2264 70.758 88.9676 67.0004 88.8243 63.1133C88.7504 59.2078 88.7134 55.0711 88.7134 50.6757V46.3356C88.7134 41.9402 88.7504 37.8174 88.8243 34.0043C88.9722 30.0987 89.2264 26.1978 89.5916 22.3107C87.5579 22.6759 84.8494 22.8561 81.4431 22.8561C79.7792 22.8561 78.2585 22.8192 76.8812 22.7452C75.5085 22.5973 74.2975 22.454 73.2899 22.3061C73.6551 26.2117 73.8769 30.0941 73.9324 33.9997C74.0757 37.8128 74.1542 41.9355 74.1542 46.331V50.671C74.1542 55.0665 74.0803 59.2263 73.9324 63.1087V63.1133Z" fill="var(--fill-0, black)"/>
<path id="Vector_13" d="M161.672 74.3678C161.307 70.758 161.048 67.0004 160.9 63.1133C160.826 59.2078 160.789 55.0711 160.789 50.6756V46.3356C160.789 41.9401 160.826 37.8174 160.9 34.0043C161.048 30.0987 161.302 26.1978 161.672 22.3107C159.638 22.6758 156.93 22.8561 153.523 22.8561C151.86 22.8561 150.339 22.8191 148.966 22.7452C147.594 22.5973 146.383 22.454 145.375 22.3061C145.74 26.2116 145.962 30.0941 146.017 33.9996C146.165 37.8127 146.239 41.9355 146.239 46.331V50.671C146.239 55.0665 146.165 59.2262 146.017 63.1087C145.944 67.0142 145.726 70.7534 145.375 74.3631C146.383 74.2152 147.589 74.1459 148.966 74.1459H158.085C159.532 74.1459 160.72 74.2199 161.677 74.3631L161.672 74.3678Z" fill="var(--fill-0, black)"/>
<path id="Vector_14" d="M204.007 73.2862V68.8538C203.346 69.2189 202.708 69.5101 202.048 69.7273C201.387 69.8752 200.384 69.9446 199.006 69.9446C197.781 69.9446 196.755 69.7273 195.965 69.2883C195.161 68.8492 194.555 68.0311 194.116 66.8063C193.677 65.5861 193.349 63.8159 193.146 61.5003C192.998 59.2032 192.924 56.1573 192.924 52.4181V47.1121C192.998 45.0138 193.035 42.8599 193.035 40.6183C193.109 38.3766 193.183 36.1858 193.257 34.0135C193.404 31.8412 193.548 29.9277 193.696 28.2684L203.254 28.4856C203.032 27.6121 202.926 26.7154 202.926 25.7864C202.926 24.9129 203.037 23.9423 203.254 22.87L193.696 23.0872V18.1094C193.77 16.3022 193.844 14.569 193.918 12.9097C194.065 11.1764 194.176 9.55414 194.246 8.03813C194.394 6.4528 194.542 5.0847 194.685 3.93384L193.603 3.16659C191.149 4.38679 188.676 5.59312 186.222 6.74399C183.749 7.8209 181.258 8.87933 178.711 9.88229C178.859 12.6185 178.97 14.9711 179.044 16.9215C179.118 18.872 179.155 20.9704 179.155 23.1981L171.557 22.87C171.778 23.9469 171.885 24.9314 171.885 25.7864C171.885 26.7154 171.774 27.6306 171.557 28.4856L179.155 28.3747C179.155 30.6903 179.118 33.2093 179.044 35.9455C178.97 38.6077 178.859 41.3624 178.711 44.1726C178.637 46.9088 178.568 49.6265 178.489 52.2887C178.416 54.8955 178.379 57.2296 178.379 59.3279C178.379 70.2912 182.973 75.7821 192.184 75.7821C194.292 75.7821 196.432 75.5279 198.595 75.0148C200.777 74.5203 202.588 73.9379 204.035 73.2816H203.998L204.007 73.2862Z" fill="var(--fill-0, black)"/>
<path id="Vector_15" d="M81.444 6.10352e-05C79.0452 6.10352e-05 77.0301 0.822766 75.3662 2.48205C73.7023 4.14133 72.8564 6.16575 72.8564 8.53681C72.8564 10.9079 73.6976 12.9323 75.3662 14.5916C77.0347 16.2508 79.0637 17.0736 81.444 17.0736C83.8243 17.0736 85.858 16.2508 87.5219 14.5916C89.1858 12.9323 90.0316 10.9079 90.0316 8.53681C90.0316 6.16575 89.1904 4.14133 87.5219 2.48205C85.858 0.822766 83.8428 6.10352e-05 81.444 6.10352e-05Z" fill="var(--fill-0, black)"/>
</g>
</svg>
